# xmcd
#
# Track frame offsets:
#	210
#	19102
#	36984
#	44284
#	68384
#	79472
#	94403
#	119489
#	127028
#	141787
#	170943
#	188292
#
# Disc length: 2667 seconds
#
# Revision: 1
# Processed by: cddbd v1.4b41PL3 Copyright (c) Steve Scherf et al.
# Submitted via: audiograbber 1.80
#
DISCID=a80a690c
DTITLE=Vienna City Blues Band - PLay My Blues
DYEAR=1900
DGENRE=
TTITLE0=Hello Josephine
TTITLE1=The Sun Is Rising
TTITLE2=The Sweetest Thing
TTITLE3=Angelina
TTITLE4=No Good Woman
TTITLE5=Crazy Boogie
TTITLE6=I Can't Understand It
TTITLE7=Don't Give Me That
TTITLE8=Merry Way
TTITLE9=Play My Blues
TTITLE10=Harmony Feeling
TTITLE11=I Like Your Kind Of Style
EXTD=
EXTT0=
EXTT1=
EXTT2=
EXTT3=
EXTT4=
EXTT5=
EXTT6=
EXTT7=
EXTT8=
EXTT9=
EXTT10=
EXTT11=
PLAYORDER=
